<svg width="104" height="31" viewBox="0 0 104 31" fill="none" xmlns="http://www.w3.org/2000/svg">
<path d="M25.2766 18.39H0.676563V15.54H11.4766V12.75C10.8966 12.61 10.3666 12.39 9.88656 12.09C9.40656 11.77 8.98656 11.4 8.62656 10.98C8.26656 10.56 7.98656 10.1 7.78656 9.6C7.58656 9.08 7.48656 8.54 7.48656 7.98C7.48656 7.08 7.73656 6.25 8.23656 5.49H5.62656V2.64H11.4766V0.539998H14.4766V2.64H20.3266V5.49H17.7166C18.2166 6.25 18.4666 7.08 18.4666 7.98C18.4666 8.54 18.3666 9.08 18.1666 9.6C17.9666 10.1 17.6866 10.56 17.3266 10.98C16.9666 11.4 16.5366 11.77 16.0366 12.09C15.5566 12.39 15.0366 12.61 14.4766 12.75V15.54H25.2766V18.39ZM15.4666 7.98C15.4666 7.36 15.2266 6.85 14.7466 6.45C14.2666 6.03 13.6766 5.82 12.9766 5.82C12.2966 5.82 11.7066 6.03 11.2066 6.45C10.7266 6.85 10.4866 7.36 10.4866 7.98C10.4866 8.6 10.7266 9.12 11.2066 9.54C11.7066 9.94 12.2966 10.14 12.9766 10.14C13.6766 10.14 14.2666 9.94 14.7466 9.54C15.2266 9.12 15.4666 8.6 15.4666 7.98ZM19.5766 29.94H9.07656C8.41656 29.94 7.84656 29.7 7.36656 29.22C6.90656 28.76 6.67656 28.2 6.67656 27.54V21.24H9.67656V27.09H19.5766V29.94ZM51.9883 9.84H48.0883V23.04H45.0883V1.14H48.0883V6.99H51.9883V9.84ZM41.6383 13.65L38.9983 14.94L35.0383 7.23L31.0783 14.94L28.4383 13.65L33.1483 4.59H29.4883V1.74H40.5883V4.59H36.9283L41.6383 13.65ZM68.65 12.3L66.04 13.74L62.05 6.66L58.06 13.74L55.45 12.3L62.05 0.84L68.65 12.3ZM75.4 30.54H64.9C64.24 30.54 63.67 30.3 63.19 29.82C62.73 29.36 62.5 28.8 62.5 28.14V23.22H72.1V21.24H62.5V18.54H72.1V1.14H75.1V6.09H79V8.94H75.1V18.54V25.83H65.5V27.84H75.4V30.54ZM103.612 23.04H100.612V9.54H98.3017V23.04H95.3617V1.14H98.3017V6.69H100.612V1.14H103.612V23.04ZM94.3117 14.64H85.6117C84.9517 14.64 84.3817 14.41 83.9017 13.95C83.4417 13.47 83.2117 12.9 83.2117 12.24V1.74H94.0117V4.59H91.3117V11.79H94.3117V14.64ZM88.3117 11.79V4.59H86.2117V11.79H88.3117Z" fill="black"/>
</svg>
