<svg width="48" height="48" viewBox="0 0 48 48" fill="none" xmlns="http://www.w3.org/2000/svg">
<g clip-path="url(#clip0_37_202)">
<path d="M48 24C48 10.7452 37.2548 0 24 0C10.7452 0 0 10.7452 0 24C0 37.2548 10.7452 48 24 48C37.2548 48 48 37.2548 48 24Z" fill="#F2F2F2"/>
<mask id="mask0_37_202" style="mask-type:luminance" maskUnits="userSpaceOnUse" x="12" y="12" width="24" height="24">
<path d="M36 12H12V36H36V12Z" fill="white"/>
</mask>
<g mask="url(#mask0_37_202)">
<path d="M35.52 24.273C35.52 23.422 35.4437 22.6039 35.3018 21.8184H24V26.4602H30.4582C30.18 27.9602 29.3346 29.2311 28.0637 30.082V33.093H31.9418C34.2109 31.0039 35.52 27.9274 35.52 24.273Z" fill="#4285F4"/>
<path d="M24 35.9998C27.24 35.9998 29.9564 34.9252 31.9418 33.0925L28.0636 30.0816C26.9891 30.8016 25.6145 31.227 24 31.227C20.8745 31.227 18.2291 29.1161 17.2854 26.2798H13.2764V29.3889C15.251 33.3107 19.3091 35.9998 24 35.9998Z" fill="#34A853"/>
<path d="M17.2854 26.2799C17.0454 25.5599 16.9091 24.7908 16.9091 23.9999C16.9091 23.209 17.0454 22.4399 17.2854 21.7199V18.6108H13.2763C12.4637 20.2308 12 22.0636 12 23.9999C12 25.9362 12.4637 27.769 13.2763 29.389L17.2854 26.2799Z" fill="#FBBC04"/>
<path d="M24 16.7728C25.7618 16.7728 27.3436 17.3782 28.5873 18.5672L32.0291 15.1254C29.951 13.1891 27.2345 12 24 12C19.3091 12 15.251 14.6891 13.2764 18.6109L17.2854 21.72C18.2291 18.8837 20.8745 16.7728 24 16.7728Z" fill="#E94235"/>
</g>
</g>
<defs>
<clipPath id="clip0_37_202">
<rect width="48" height="48" fill="white"/>
</clipPath>
</defs>
</svg>
