<svg width="48" height="48" viewBox="0 0 48 48" fill="none" xmlns="http://www.w3.org/2000/svg">
<g clip-path="url(#clip0_32_171)">
<path fill-rule="evenodd" clip-rule="evenodd" d="M0 24C0 10.745 10.745 0 24 0C37.255 0 48 10.745 48 24C48 37.255 37.255 48 24 48C10.745 48 0 37.255 0 24Z" fill="#FFEB00"/>
<path fill-rule="evenodd" clip-rule="evenodd" d="M24 11.2769C32.284 11.2769 39 16.5829 39 23.1269C39 29.6719 32.284 34.9769 24 34.9769C23.08 34.9769 22.178 34.9109 21.303 34.7859L15.222 38.8909C15.1492 38.9486 15.0597 38.9811 14.9668 38.9837C14.8739 38.9863 14.7827 38.9587 14.7069 38.9051C14.631 38.8515 14.5745 38.7748 14.5459 38.6864C14.5172 38.598 14.518 38.5028 14.548 38.4149L15.962 33.1329C11.777 31.0309 9 27.3349 9 23.1269C9 16.5829 15.716 11.2769 24 11.2769ZM30.22 19.6839C29.804 19.6839 29.502 19.9809 29.502 20.3909V26.3299C29.502 26.7399 29.791 27.0159 30.22 27.0159C30.63 27.0159 30.938 26.7209 30.938 26.3299V24.3979L31.453 23.8719L33.338 26.4419C33.615 26.8159 33.764 26.9819 34.029 27.0099C34.066 27.0129 34.104 27.0149 34.141 27.0149C34.295 27.0149 34.801 26.9749 34.857 26.4519C34.895 26.1589 34.72 25.9319 34.509 25.6559L32.466 22.9809L34.193 21.2379L34.369 21.0419C34.603 20.7819 34.722 20.6519 34.722 20.4549C34.731 20.0329 34.382 19.8029 34.035 19.7939C33.761 19.7939 33.578 19.9439 33.465 20.0559L30.937 22.6899V20.3899C30.937 19.9679 30.649 19.6839 30.22 19.6839ZM20.856 19.6839C20.296 19.6839 19.938 20.1159 19.789 20.5209L17.706 26.0379C17.6642 26.1377 17.6422 26.2446 17.641 26.3529C17.641 26.7249 17.951 27.0159 18.347 27.0159C18.706 27.0159 18.925 26.8539 19.037 26.5059L19.358 25.5359H22.357L22.67 26.5179C22.781 26.8529 23.01 27.0159 23.37 27.0159C23.737 27.0159 24.025 26.7429 24.025 26.3959C24.025 26.3399 24.008 26.1999 23.944 26.0269L21.925 20.5189C21.738 19.9889 21.348 19.6839 20.856 19.6839ZM17.936 19.7479H13.484C13.067 19.7479 12.842 20.0849 12.842 20.4019C12.842 20.7019 13.01 21.0539 13.484 21.0539H14.994V26.2639C14.994 26.7279 15.268 27.0159 15.71 27.0159C16.153 27.0159 16.428 26.7279 16.428 26.2649V21.0549H17.936C18.41 21.0549 18.579 20.7029 18.579 20.4019C18.579 20.0849 18.354 19.7479 17.936 19.7479ZM25.49 19.6839C25.048 19.6839 24.773 19.9709 24.773 20.4339V26.1409C24.773 26.6379 25.053 26.9349 25.523 26.9349H28.197C28.631 26.9349 28.874 26.6139 28.883 26.3079C28.8888 26.2206 28.8767 26.1332 28.8474 26.0508C28.8182 25.9685 28.7724 25.8929 28.713 25.8289C28.591 25.6989 28.413 25.6289 28.197 25.6289H26.207V20.4339C26.207 19.9709 25.933 19.6839 25.49 19.6839ZM20.87 20.9999L21.953 24.2649H19.761L20.842 20.9999C20.8431 20.997 20.845 20.9946 20.8475 20.9929C20.85 20.9912 20.853 20.9902 20.856 20.9902C20.859 20.9902 20.862 20.9912 20.8645 20.9929C20.867 20.9946 20.8689 20.997 20.87 20.9999Z" fill="#3C2929"/>
</g>
<defs>
<clipPath id="clip0_32_171">
<rect width="48" height="48" fill="white"/>
</clipPath>
</defs>
</svg>
